<?xml version="1.0" encoding="UTF-8" standalone="no"?>
<!-- Created with Keyshape -->
<svg xmlns="http://www.w3.org/2000/svg" viewBox="0 0 800 800" text-rendering="geometricPrecision" shape-rendering="geometricPrecision" style="white-space: pre;">
    <defs>
        <clipPath id="ClipPath-1">
            <path fill="#000000" stroke="none" d="M507,116.104L507,-116.104C507,-116.104,-64.1225,-116.104,0,-116.104C64.1225,-116.104,116.104,-64.1225,116.104,0C116.104,64.1225,64.1225,116.104,0,116.104C-64.1225,116.104,507,116.104,507,116.104Z" transform="translate(-138.24,91.1856)"/>
        </clipPath>
    </defs>
    <style>
@keyframes a0_t { 0% { transform: translate(-430.530635px,0px); } 37.5% { transform: translate(-430.530635px,0px); animation-timing-function: cubic-bezier(0.165,0.84,0.44,1); } 62.5% { transform: translate(0px,0px); } 100% { transform: translate(0px,0px); } }
@keyframes a0_o { 0% { opacity: 0; } 37.5% { opacity: 0; animation-timing-function: cubic-bezier(0.215,0.61,0.355,1); } 62.5% { opacity: 1; } 100% { opacity: 1; } }
@keyframes a1_t { 0% { transform: translate(199.106917px,336.288px) rotate(0deg) scale(0.8,0.8) translate(181.59px,221.22px); } 25% { transform: translate(103.572px,289.792px) rotate(0deg) scale(0.8,0.8) translate(181.59px,221.22px); } 100% { transform: translate(103.572px,289.792px) rotate(0deg) scale(0.8,0.8) translate(181.59px,221.22px); } }
@keyframes a1_o { 0% { opacity: 0; animation-timing-function: cubic-bezier(0.895,0.03,0.685,0.22); } 25% { opacity: 1; } 100% { opacity: 1; } }
@keyframes a2_t { 0% { transform: translate(155.749681px,350.76px) rotate(0deg) scale(0.8,0.8) translate(251.13px,160.23px); } 25% { transform: translate(103.572px,289.792px) rotate(0deg) scale(0.8,0.8) translate(251.13px,160.23px); } 100% { transform: translate(103.572px,289.792px) rotate(0deg) scale(0.8,0.8) translate(251.13px,160.23px); } }
@keyframes a2_o { 0% { opacity: 0; animation-timing-function: cubic-bezier(0.895,0.03,0.685,0.22); } 25% { opacity: 1; } 100% { opacity: 1; } }
@keyframes a3_t { 0% { transform: translate(199.165972px,224.923893px) rotate(0deg) scale(0.8,0.8) translate(250.25px,95.3px); } 25% { transform: translate(103.572px,289.792px) rotate(0deg) scale(0.8,0.8) translate(250.25px,95.3px); } 100% { transform: translate(103.572px,289.792px) rotate(0deg) scale(0.8,0.8) translate(250.25px,95.3px); } }
@keyframes a3_o { 0% { opacity: 0; animation-timing-function: cubic-bezier(0.895,0.03,0.685,0.22); } 25% { opacity: 1; } 100% { opacity: 1; } }
@keyframes a4_t { 0% { transform: translate(179.576px,326.688px) rotate(0deg) scale(0.8,0.8) translate(221.3px,217.27px); } 25% { transform: translate(103.572px,289.792px) rotate(0deg) scale(0.8,0.8) translate(221.3px,217.27px); } 100% { transform: translate(103.572px,289.792px) rotate(0deg) scale(0.8,0.8) translate(221.3px,217.27px); } }
@keyframes a4_o { 0% { opacity: 0; animation-timing-function: cubic-bezier(0.895,0.03,0.685,0.22); } 25% { opacity: 1; } 100% { opacity: 1; } }
@keyframes a5_t { 0% { transform: translate(145.672004px,376.710347px) rotate(0deg) scale(0.8,0.8) translate(165.14px,250.83px); } 25% { transform: translate(103.572px,289.792px) rotate(0deg) scale(0.8,0.8) translate(165.14px,250.83px); } 100% { transform: translate(103.572px,289.792px) rotate(0deg) scale(0.8,0.8) translate(165.14px,250.83px); } }
@keyframes a5_o { 0% { opacity: 0; animation-timing-function: cubic-bezier(0.895,0.03,0.685,0.22); } 25% { opacity: 1; } 100% { opacity: 1; } }
@keyframes a6_t { 0% { transform: translate(372.607046px,412.191987px) rotate(92.96968deg) scale(0.8,0.8) translate(-28.57px,-36.795px); } 25% { transform: translate(278.492px,414.22px) rotate(0deg) scale(0.8,0.8) translate(-28.57px,-36.795px); } 100% { transform: translate(278.492px,414.22px) rotate(0deg) scale(0.8,0.8) translate(-28.57px,-36.795px); } }
@keyframes a6_o { 0% { opacity: 0; animation-timing-function: cubic-bezier(0.895,0.03,0.685,0.22); } 25% { opacity: 1; } 100% { opacity: 1; } }
@keyframes a7_t { 0% { transform: translate(301.348px,535.128024px) rotate(-57.677306deg) scale(0.8,0.8) translate(-22.5608px,-29.7846px); } 25% { transform: translate(229.1952px,427.204px) rotate(0deg) scale(0.8,0.8) translate(-22.5608px,-29.7846px); } 100% { transform: translate(229.1952px,427.204px) rotate(0deg) scale(0.8,0.8) translate(-22.5608px,-29.7846px); } }
@keyframes a7_o { 0% { opacity: 0; animation-timing-function: cubic-bezier(0.895,0.03,0.685,0.22); } 25% { opacity: 1; } 100% { opacity: 1; } }
@keyframes a8_t { 0% { transform: translate(29.791998px,203.224885px) rotate(0deg) scale(0.8,0.8) translate(52.39px,85.2px); } 25% { transform: translate(103.572px,289.792px) rotate(0deg) scale(0.8,0.8) translate(52.39px,85.2px); } 100% { transform: translate(103.572px,289.792px) rotate(0deg) scale(0.8,0.8) translate(52.39px,85.2px); } }
@keyframes a8_o { 0% { opacity: 0; animation-timing-function: cubic-bezier(0.895,0.03,0.685,0.22); } 25% { opacity: 1; } 100% { opacity: 1; } }
@keyframes a9_t { 0% { transform: translate(117.264719px,171px) rotate(0deg) scale(0.8,0.8) translate(158.06px,8.81px); } 25% { transform: translate(103.572px,289.792px) rotate(0deg) scale(0.8,0.8) translate(158.06px,8.81px); } 100% { transform: translate(103.572px,289.792px) rotate(0deg) scale(0.8,0.8) translate(158.06px,8.81px); } }
@keyframes a9_o { 0% { opacity: 0; animation-timing-function: cubic-bezier(0.895,0.03,0.685,0.22); } 25% { opacity: 1; } 100% { opacity: 1; } }
@keyframes a10_t { 0% { transform: translate(185.890917px,220.17288px) rotate(0deg) scale(0.8,0.8) translate(215.66px,39.82px); } 25% { transform: translate(103.572px,289.792px) rotate(0deg) scale(0.8,0.8) translate(215.66px,39.82px); } 100% { transform: translate(103.572px,289.792px) rotate(0deg) scale(0.8,0.8) translate(215.66px,39.82px); } }
@keyframes a10_o { 0% { opacity: 0; animation-timing-function: cubic-bezier(0.895,0.03,0.685,0.22); } 25% { opacity: 1; } 100% { opacity: 1; } }
@keyframes a12_t { 0% { transform: translate(301.348276px,230.73288px); animation-timing-function: cubic-bezier(0.55,0.085,0.68,0.53); } 25% { transform: translate(207.164px,353.416px); } 100% { transform: translate(207.164px,353.416px); } }
@keyframes a11_t { 0% { transform: rotate(-88.46137deg) scale(0.8,0.8) translate(-49.35px,-20.25px); } 25% { transform: rotate(0deg) scale(0.8,0.8) translate(-49.35px,-20.25px); } 100% { transform: rotate(0deg) scale(0.8,0.8) translate(-49.35px,-20.25px); } }
@keyframes a11_o { 0% { opacity: 0; animation-timing-function: cubic-bezier(0.895,0.03,0.685,0.22); } 25% { opacity: 1; } 100% { opacity: 1; } }
@keyframes a14_t { 0% { transform: translate(111.312004px,209.61288px); animation-timing-function: cubic-bezier(0.55,0.085,0.68,0.53); } 25% { transform: translate(170.644px,313.18px); } 100% { transform: translate(170.644px,313.18px); } }
@keyframes a13_t { 0% { transform: rotate(137.897559deg) scale(0.8,0.8) translate(-18.77px,-25.605px); } 25% { transform: rotate(0deg) scale(0.8,0.8) translate(-18.77px,-25.605px); } 100% { transform: rotate(0deg) scale(0.8,0.8) translate(-18.77px,-25.605px); } }
@keyframes a13_o { 0% { opacity: 0; animation-timing-function: cubic-bezier(0.895,0.03,0.685,0.22); } 25% { opacity: 1; } 100% { opacity: 1; } }
@keyframes a16_t { 0% { transform: translate(358.107194px,251.000008px); animation-timing-function: cubic-bezier(0.55,0.085,0.68,0.53); } 25% { transform: translate(209.4248px,384.4608px); } 100% { transform: translate(209.4248px,384.4608px); } }
@keyframes a15_t { 0% { transform: rotate(93.87819deg) scale(0.8,0.8) translate(-26.7962px,-36.724px); } 25% { transform: rotate(0deg) scale(0.8,0.8) translate(-26.7962px,-36.724px); } 100% { transform: rotate(0deg) scale(0.8,0.8) translate(-26.7962px,-36.724px); } }
@keyframes a15_o { 0% { opacity: 0; animation-timing-function: cubic-bezier(0.895,0.03,0.685,0.22); } 25% { opacity: 1; } 100% { opacity: 1; } }
@keyframes a18_t { 0% { transform: translate(39.194434px,362.592px); animation-timing-function: cubic-bezier(0.55,0.085,0.68,0.53); } 25% { transform: translate(103.572px,289.792px); } 100% { transform: translate(103.572px,289.792px); } }
@keyframes a17_t { 0% { transform: rotate(0deg) scale(0.8,0.8) translate(47.57px,223.3px); } 25% { transform: rotate(0deg) scale(0.8,0.8) translate(47.57px,223.3px); } 100% { transform: rotate(0deg) scale(0.8,0.8) translate(47.57px,223.3px); } }
@keyframes a17_o { 0% { opacity: 0; animation-timing-function: cubic-bezier(0.895,0.03,0.685,0.22); } 25% { opacity: 1; } 100% { opacity: 1; } }
@keyframes a20_t { 0% { transform: translate(130.829681px,171px); animation-timing-function: cubic-bezier(0.55,0.085,0.68,0.53); } 25% { transform: translate(103.572px,289.792px); } 100% { transform: translate(103.572px,289.792px); } }
@keyframes a19_t { 0% { transform: rotate(0deg) scale(0.8,0.8) translate(39.96px,45.62px); } 25% { transform: rotate(0deg) scale(0.8,0.8) translate(39.96px,45.62px); } 100% { transform: rotate(0deg) scale(0.8,0.8) translate(39.96px,45.62px); } }
@keyframes a19_o { 0% { opacity: 0; animation-timing-function: cubic-bezier(0.895,0.03,0.685,0.22); } 25% { opacity: 1; } 100% { opacity: 1; } }
@keyframes a22_t { 0% { transform: translate(128.492px,549px); animation-timing-function: cubic-bezier(0.55,0.085,0.68,0.53); } 25% { transform: translate(174.664px,477.772px); } 100% { transform: translate(174.664px,477.772px); } }
@keyframes a21_t { 0% { transform: rotate(-65.766414deg) scale(0.8,0.8) translate(-21.475px,-26.525px); } 25% { transform: rotate(0deg) scale(0.8,0.8) translate(-21.475px,-26.525px); } 100% { transform: rotate(0deg) scale(0.8,0.8) translate(-21.475px,-26.525px); } }
@keyframes a21_o { 0% { opacity: 0; animation-timing-function: cubic-bezier(0.895,0.03,0.685,0.22); } 25% { opacity: 1; } 100% { opacity: 1; } }
@keyframes a24_t { 0% { transform: translate(51.024px,504.8344px); animation-timing-function: cubic-bezier(0.55,0.085,0.68,0.53); } 25% { transform: translate(155.564px,412.284px); } 100% { transform: translate(155.564px,412.284px); } }
@keyframes a23_t { 0% { transform: rotate(98.398315deg) scale(0.8,0.8) translate(-26.54px,-40.115px); } 25% { transform: rotate(0deg) scale(0.8,0.8) translate(-26.54px,-40.115px); } 100% { transform: rotate(0deg) scale(0.8,0.8) translate(-26.54px,-40.115px); } }
@keyframes a23_o { 0% { opacity: 0; animation-timing-function: cubic-bezier(0.895,0.03,0.685,0.22); } 25% { opacity: 1; } 100% { opacity: 1; } }
@keyframes a26_t { 0% { transform: translate(35px,425.024px); animation-timing-function: cubic-bezier(0.55,0.085,0.68,0.53); } 25% { transform: translate(119.596px,398.584px); } 100% { transform: translate(119.596px,398.584px); } }
@keyframes a25_t { 0% { transform: rotate(99.060097deg) scale(0.8,0.8) translate(-20.03px,-40.83px); } 25% { transform: rotate(0deg) scale(0.8,0.8) translate(-20.03px,-40.83px); } 100% { transform: rotate(0deg) scale(0.8,0.8) translate(-20.03px,-40.83px); } }
@keyframes a25_o { 0% { opacity: 0; animation-timing-function: cubic-bezier(0.895,0.03,0.685,0.22); } 25% { opacity: 1; } 100% { opacity: 1; } }
@keyframes a28_t { 0% { transform: translate(218.498914px,221.620874px); animation-timing-function: cubic-bezier(0.55,0.085,0.68,0.53); } 25% { transform: translate(226.964px,323.944px); } 100% { transform: translate(226.964px,323.944px); } }
@keyframes a27_t { 0% { transform: rotate(80.514845deg) scale(0.8,0.8) translate(-40.76px,-16.52px); } 25% { transform: rotate(0deg) scale(0.8,0.8) translate(-40.76px,-16.52px); } 100% { transform: rotate(0deg) scale(0.8,0.8) translate(-40.76px,-16.52px); } }
@keyframes a27_o { 0% { opacity: 0; animation-timing-function: cubic-bezier(0.895,0.03,0.685,0.22); } 25% { opacity: 1; } 100% { opacity: 1; } }
@keyframes a30_t { 0% { transform: translate(328.912028px,333.50056px); animation-timing-function: cubic-bezier(0.55,0.085,0.68,0.53); } 25% { transform: translate(260.916px,378.476px); } 100% { transform: translate(260.916px,378.476px); } }
@keyframes a29_t { 0% { transform: rotate(91.408812deg) scale(0.8,0.8) translate(-26.78px,-40.895px); } 25% { transform: rotate(0deg) scale(0.8,0.8) translate(-26.78px,-40.895px); } 100% { transform: rotate(0deg) scale(0.8,0.8) translate(-26.78px,-40.895px); } }
@keyframes a29_o { 0% { opacity: 0; animation-timing-function: cubic-bezier(0.895,0.03,0.685,0.22); } 25% { opacity: 1; } 100% { opacity: 1; } }
@keyframes a32_t { 0% { transform: translate(215.904244px,548.9px); animation-timing-function: cubic-bezier(0.55,0.085,0.68,0.53); } 25% { transform: translate(194.536px,450.156px); } 100% { transform: translate(194.536px,450.156px); } }
@keyframes a31_t { 0% { transform: rotate(-57.356812deg) scale(0.8,0.8) translate(-32.165px,-37.465px); } 25% { transform: rotate(0deg) scale(0.8,0.8) translate(-32.165px,-37.465px); } 100% { transform: rotate(0deg) scale(0.8,0.8) translate(-32.165px,-37.465px); } }
@keyframes a31_o { 0% { opacity: 0; animation-timing-function: cubic-bezier(0.895,0.03,0.685,0.22); } 25% { opacity: 1; } 100% { opacity: 1; } }
    </style>
    <g clip-path="url(#ClipPath-1)" transform="translate(520.916,409.511) translate(-175.512,-100.697)">
        <g opacity="0" transform="translate(-255.019,100.697) translate(-175.512,-100.697)" style="animation: 4s linear both a0_t, 4s linear both a0_o;">
            <path class="cls-1" d="M326.39,133.3C326.83,159.62,343.65,170.47,363.12,170.47C377.05,170.47,385.46,168.03,392.76,164.94L396.08,178.87C389.22,181.97,377.5,185.51,360.46,185.51C327.46,185.51,307.8,163.83,307.8,131.51C307.8,99.19,326.8,73.76,358.03,73.76C393.03,73.76,402.28,104.51,402.28,124.2C402.272,124.959,402.253,125.718,402.221,126.477C402.189,127.235,402.145,127.993,402.089,128.751C402.033,129.508,401.966,130.264,401.886,131.019C401.806,131.774,401.714,132.528,401.61,133.28ZM383.47,119.36C383.69,106.97,378.38,87.72,356.47,87.72C336.78,87.72,328.15,105.86,326.6,119.36Z" fill="#2d71b6" transform="translate(-241.832,-19.0224) scale(0.8,0.8)"/>
            <path class="cls-1" d="M461.35,46.12C461.57,52.76,456.7,58.12,448.96,58.12C447.391,58.1414,445.833,57.8435,444.383,57.2445C442.932,56.6456,441.618,55.758,440.521,54.6357C439.424,53.5134,438.567,52.1798,438.001,50.7159C437.435,49.252,437.173,47.6884,437.23,46.12C437.194,44.5143,437.485,42.9182,438.085,41.4282C438.684,39.9383,439.58,38.5856,440.718,37.4523C441.856,36.319,443.212,35.4287,444.705,34.8352C446.197,34.2418,447.795,33.9576,449.4,34C456.7,34,461.35,39.26,461.35,46.12ZM439.66,183.3L439.66,76.21L459.13,76.21L459.13,183.3Z" fill="#2d71b6" transform="translate(-241.832,-19.0224) scale(0.8,0.8)"/>
            <path class="cls-1" d="M570.86,183.3L570.86,91L526,91L526,183.3L506.7,183.3L506.7,91L491.65,91L491.65,76.21L506.7,76.21L506.7,72.67C506.7,57.67,510.24,44.57,518.65,36.17C524.84,29.97,533.65,26.17,545.65,26.17C546.973,26.1889,548.294,26.2844,549.606,26.4561C550.918,26.6278,552.219,26.8753,553.503,27.1974C554.786,27.5195,556.05,27.9157,557.288,28.384C558.525,28.8523,559.735,29.3919,560.91,30L556.91,44.38C556.012,43.9616,555.092,43.5905,554.155,43.2683C553.218,42.9461,552.265,42.6731,551.299,42.4506C550.334,42.2281,549.357,42.0563,548.374,41.936C547.39,41.8156,546.401,41.7469,545.41,41.73C530.14,41.73,525.94,54.73,525.94,71.6L525.94,76.24L570.85,76.24L570.85,71.12C570.85,56.12,574.39,42.36,583.46,33.73C590.77,26.65,600.46,23.78,609.35,23.78C610.77,23.7666,612.19,23.8217,613.605,23.9452C615.02,24.0686,616.428,24.2603,617.825,24.5194C619.221,24.7786,620.604,25.1049,621.969,25.4974C623.334,25.8898,624.679,26.3479,626,26.87L623.57,41.92C622.579,41.4943,621.565,41.1221,620.534,40.8049C619.503,40.4877,618.456,40.2261,617.396,40.0212C616.337,39.8162,615.268,39.6682,614.193,39.5779C613.118,39.4875,612.039,39.4548,610.96,39.48C594.59,39.48,590.16,54.09,590.16,70.48L590.16,76.23L616,76.23L616,91L590.33,91L590.33,183.3Z" fill="#2d71b6" transform="translate(-241.832,-19.0224) scale(0.8,0.8)"/>
            <path class="cls-1" d="M741,128.87C741,168.48,713.57,185.73,687.68,185.73C658.68,185.73,636.35,164.49,636.35,130.64C636.35,94.8,659.8,73.78,689.45,73.78C720.21,73.78,741,96.13,741,128.87ZM656,130C656,153.45,669.5,171.15,688.53,171.15C707.11,171.15,721.05,153.67,721.05,129.55C721.05,111.41,711.98,88.4,688.97,88.4C665.96,88.4,656,109.62,656,130Z" fill="#2d71b6" transform="translate(-241.832,-19.0224) scale(0.8,0.8)"/>
            <path class="cls-2" d="M327.86,257.43L327.28,252.43L327,252.43C326.276,253.369,325.444,254.219,324.522,254.964C323.6,255.709,322.594,256.344,321.524,256.854C320.454,257.365,319.328,257.748,318.169,257.997C317.009,258.245,315.825,258.357,314.64,258.33C306.46,258.33,302.29,252.67,302.29,246.93C302.29,237.34,310.97,232.09,326.58,232.17L326.58,231.35C326.58,228.07,325.66,222.17,317.4,222.17C316.477,222.176,315.555,222.245,314.641,222.376C313.727,222.507,312.823,222.7,311.936,222.953C311.048,223.206,310.178,223.519,309.333,223.89C308.487,224.261,307.668,224.688,306.88,225.17L305.21,220.42C306.208,219.83,307.245,219.308,308.314,218.86C309.383,218.412,310.481,218.037,311.601,217.739C312.722,217.441,313.861,217.22,315.012,217.078C316.162,216.936,317.321,216.873,318.48,216.89C330.84,216.89,333.84,225.17,333.84,233.13L333.84,247.97C333.827,248.765,333.831,249.561,333.853,250.356C333.874,251.151,333.913,251.946,333.969,252.74C334.024,253.533,334.098,254.325,334.188,255.116C334.278,255.906,334.386,256.694,334.51,257.48ZM326.78,237.18C318.78,237.01,309.66,238.41,309.66,246.11C309.66,250.79,312.84,253,316.59,253C317.645,253.037,318.698,252.907,319.712,252.614C320.726,252.321,321.687,251.87,322.56,251.277C323.433,250.684,324.206,249.956,324.852,249.121C325.497,248.286,326.006,247.354,326.36,246.36C326.425,246.175,326.483,245.988,326.533,245.799C326.583,245.61,326.626,245.419,326.661,245.227C326.696,245.034,326.723,244.84,326.743,244.646C326.763,244.451,326.775,244.256,326.78,244.06Z" fill="#53a9dd" transform="translate(-241.832,-19.0224) scale(0.8,0.8)"/>
            <path class="cls-2" d="M363.42,228.48C363.42,224.38,363.34,221.02,363.09,217.74L369.6,217.74L370.02,224.3L370.19,224.3C370.858,223.138,371.68,222.072,372.634,221.13C373.588,220.188,374.664,219.379,375.834,218.725C377.004,218.071,378.257,217.578,379.559,217.26C380.861,216.941,382.2,216.8,383.54,216.84C389.14,216.84,397.82,220.12,397.82,233.73L397.82,257.43L390.47,257.43L390.47,234.55C390.47,228.16,388.05,222.83,381.12,222.83C380.02,222.841,378.929,223.026,377.887,223.379C376.846,223.731,375.866,224.247,374.986,224.906C374.106,225.566,373.336,226.361,372.705,227.262C372.074,228.162,371.589,229.158,371.27,230.21C371.182,230.481,371.106,230.755,371.041,231.032C370.976,231.308,370.922,231.588,370.88,231.869C370.839,232.151,370.808,232.433,370.79,232.717C370.771,233.001,370.765,233.286,370.77,233.57L370.77,257.43L363.42,257.43Z" fill="#53a9dd" transform="translate(-241.832,-19.0224) scale(0.8,0.8)"/>
            <path class="cls-2" d="M449.82,257.43L449.24,252.43L449,252.43C448.276,253.369,447.444,254.219,446.522,254.964C445.6,255.709,444.594,256.344,443.524,256.854C442.454,257.365,441.328,257.748,440.169,257.997C439.009,258.245,437.825,258.357,436.64,258.33C428.46,258.33,424.29,252.67,424.29,246.93C424.29,237.34,432.97,232.09,448.58,232.17L448.58,231.35C448.58,228.07,447.66,222.17,439.4,222.17C438.477,222.176,437.555,222.245,436.641,222.376C435.727,222.507,434.823,222.7,433.936,222.953C433.048,223.206,432.178,223.519,431.333,223.89C430.487,224.261,429.668,224.688,428.88,225.17L427.21,220.42C428.208,219.83,429.245,219.308,430.314,218.86C431.383,218.412,432.481,218.037,433.601,217.739C434.722,217.441,435.861,217.22,437.012,217.078C438.162,216.936,439.321,216.873,440.48,216.89C452.84,216.89,455.84,225.17,455.84,233.13L455.84,247.97C455.827,248.765,455.831,249.561,455.853,250.356C455.874,251.151,455.913,251.946,455.969,252.74C456.024,253.533,456.098,254.325,456.188,255.116C456.278,255.906,456.386,256.694,456.51,257.48ZM448.74,237.18C440.74,237.01,431.62,238.41,431.62,246.11C431.62,250.79,434.8,253,438.55,253C439.605,253.037,440.658,252.907,441.672,252.614C442.686,252.321,443.647,251.87,444.52,251.277C445.393,250.684,446.166,249.956,446.812,249.121C447.457,248.286,447.966,247.354,448.32,246.36C448.385,246.175,448.443,245.988,448.493,245.799C448.543,245.61,448.586,245.419,448.621,245.227C448.656,245.034,448.683,244.84,448.703,244.646C448.723,244.451,448.735,244.256,448.74,244.06Z" fill="#53a9dd" transform="translate(-241.832,-19.0224) scale(0.8,0.8)"/>
            <path class="cls-2" d="M485.38,199.21L492.73,199.21L492.73,257.43L485.38,257.43Z" fill="#53a9dd" transform="translate(-241.832,-19.0224) scale(0.8,0.8)"/>
            <path class="cls-2" d="M525.45,217.74L534.3,241.19C535.22,243.82,536.22,246.93,536.89,249.31L537.05,249.31C537.81,246.93,538.64,243.9,539.64,241.03L547.64,217.74L555.4,217.74L544.4,246C539.14,259.61,535.55,266.58,530.54,270.85C529.905,271.422,529.235,271.953,528.532,272.439C527.83,272.926,527.097,273.367,526.339,273.761C525.58,274.154,524.798,274.499,523.995,274.793C523.193,275.087,522.373,275.33,521.54,275.52L519.7,269.45C520.285,269.262,520.861,269.046,521.425,268.803C521.99,268.56,522.543,268.29,523.082,267.995C523.621,267.7,524.146,267.38,524.655,267.035C525.164,266.69,525.656,266.321,526.13,265.93C526.79,265.395,527.419,264.821,528.013,264.213C528.608,263.605,529.166,262.963,529.686,262.29C530.206,261.617,530.686,260.914,531.124,260.186C531.563,259.458,531.959,258.704,532.31,257.93C532.383,257.797,532.45,257.66,532.511,257.521C532.572,257.382,532.627,257.24,532.676,257.096C532.725,256.952,532.767,256.805,532.802,256.658C532.838,256.51,532.867,256.36,532.89,256.21C532.873,256.047,532.849,255.885,532.82,255.724C532.79,255.564,532.755,255.404,532.713,255.246C532.671,255.088,532.623,254.931,532.569,254.777C532.515,254.622,532.456,254.47,532.39,254.32L517.45,217.75Z" fill="#53a9dd" transform="translate(-241.832,-19.0224) scale(0.8,0.8)"/>
            <path class="cls-2" d="M588.64,206.34L588.64,217.74L599.16,217.74L599.16,223.24L588.64,223.24L588.64,244.64C588.64,249.56,590.06,252.35,594.15,252.35C594.508,252.355,594.867,252.349,595.225,252.33C595.583,252.312,595.94,252.282,596.296,252.24C596.652,252.198,597.007,252.145,597.36,252.08C597.712,252.015,598.062,251.938,598.41,251.85L598.74,257.27C598.218,257.45,597.689,257.607,597.153,257.739C596.617,257.872,596.076,257.98,595.53,258.064C594.985,258.148,594.436,258.207,593.885,258.241C593.334,258.276,592.782,258.285,592.23,258.27C588.81,258.27,586.05,257.2,584.3,255.27C582.21,253.13,581.46,249.61,581.46,244.93L581.46,223.24L575.2,223.24L575.2,217.74L581.46,217.74L581.46,208.23Z" fill="#53a9dd" transform="translate(-241.832,-19.0224) scale(0.8,0.8)"/>
            <path class="cls-2" d="M633.3,206.59C633.38,209.05,631.55,211.02,628.63,211.02C628.045,211.034,627.462,210.928,626.919,210.711C626.375,210.493,625.881,210.167,625.467,209.753C625.053,209.339,624.727,208.845,624.509,208.301C624.292,207.758,624.186,207.175,624.2,206.59C624.19,205.988,624.303,205.391,624.531,204.834C624.759,204.277,625.098,203.772,625.528,203.35C625.957,202.929,626.467,202.598,627.028,202.38C627.589,202.162,628.188,202.06,628.79,202.08C629.389,202.053,629.988,202.151,630.547,202.368C631.107,202.585,631.615,202.917,632.039,203.341C632.463,203.765,632.795,204.273,633.012,204.833C633.229,205.392,633.327,205.991,633.3,206.59ZM625.12,257.43L625.12,217.74L632.47,217.74L632.47,257.43Z" fill="#53a9dd" transform="translate(-241.832,-19.0224) scale(0.8,0.8)"/>
            <path class="cls-2" d="M691.15,256C690.24,256.399,689.309,256.749,688.361,257.047C687.414,257.345,686.45,257.591,685.476,257.784C684.501,257.977,683.517,258.117,682.527,258.203C681.537,258.29,680.543,258.322,679.55,258.3C667.36,258.3,659.43,250.18,659.43,238.05C659.43,225.92,667.94,216.97,681.13,216.97C682.002,216.959,682.875,216.994,683.743,217.075C684.612,217.155,685.476,217.281,686.331,217.451C687.187,217.622,688.033,217.837,688.866,218.095C689.699,218.354,690.518,218.656,691.32,219L689.65,224.58C688.996,224.244,688.321,223.95,687.629,223.7C686.937,223.451,686.23,223.246,685.512,223.086C684.794,222.927,684.066,222.814,683.334,222.748C682.601,222.681,681.865,222.662,681.13,222.69C671.87,222.69,666.86,229.42,666.86,237.69C666.86,246.87,672.86,252.53,680.86,252.53C681.635,252.53,682.409,252.488,683.179,252.404C683.949,252.319,684.714,252.193,685.47,252.025C686.226,251.857,686.973,251.647,687.706,251.398C688.439,251.148,689.158,250.858,689.86,250.53Z" fill="#53a9dd" transform="translate(-241.832,-19.0224) scale(0.8,0.8)"/>
            <path class="cls-2" d="M716.44,250.05C717.167,250.495,717.922,250.892,718.7,251.239C719.479,251.585,720.279,251.88,721.096,252.122C721.913,252.364,722.745,252.553,723.587,252.686C724.429,252.819,725.278,252.898,726.13,252.92C731.47,252.92,733.97,250.3,733.97,247.02C733.97,243.57,731.89,241.69,726.46,239.72C719.2,237.18,715.78,233.24,715.78,228.48C715.78,222.09,721.03,216.84,729.72,216.84C730.582,216.831,731.443,216.877,732.3,216.977C733.156,217.078,734.005,217.232,734.841,217.439C735.678,217.646,736.501,217.906,737.305,218.217C738.108,218.528,738.892,218.89,739.65,219.3L737.81,224.55C737.191,224.174,736.548,223.841,735.883,223.553C735.219,223.266,734.536,223.024,733.839,222.83C733.141,222.636,732.432,222.489,731.714,222.393C730.997,222.296,730.274,222.248,729.55,222.25C725.21,222.25,722.79,224.71,722.79,227.66C722.79,230.94,725.21,232.42,730.47,234.39C737.47,237.01,741.07,240.46,741.07,246.39C741.07,253.39,735.56,258.28,725.96,258.28C724.977,258.298,723.994,258.254,723.016,258.148C722.039,258.041,721.069,257.874,720.113,257.645C719.157,257.417,718.216,257.129,717.296,256.782C716.376,256.435,715.479,256.03,714.61,255.57Z" fill="#53a9dd" transform="translate(-241.832,-19.0224) scale(0.8,0.8)"/>
        </g>
    </g>
    <ellipse class="cls-1" rx="13.2" ry="13.2" fill="#2d71b6" opacity="0" transform="translate(199.107,336.288) scale(0.8,0.8) translate(181.59,221.22)" style="animation: 4s linear both a1_t, 4s linear both a1_o;"/>
    <ellipse class="cls-2" rx="8.81" ry="8.81" fill="#53a9dd" opacity="0" transform="translate(155.75,350.76) scale(0.8,0.8) translate(251.13,160.23)" style="animation: 4s linear both a2_t, 4s linear both a2_o;"/>
    <ellipse class="cls-3" rx="8.81" ry="8.81" fill="#888f99" opacity="0" transform="translate(199.166,224.924) scale(0.8,0.8) translate(250.25,95.3)" style="animation: 4s linear both a3_t, 4s linear both a3_o;"/>
    <ellipse class="cls-3" rx="8.81" ry="8.81" fill="#888f99" opacity="0" transform="translate(179.576,326.688) scale(0.8,0.8) translate(221.3,217.27)" style="animation: 4s linear both a4_t, 4s linear both a4_o;"/>
    <ellipse class="cls-2" rx="8.81" ry="8.81" fill="#53a9dd" opacity="0" transform="translate(145.672,376.71) scale(0.8,0.8) translate(165.14,250.83)" style="animation: 4s linear both a5_t, 4s linear both a5_o;"/>
    <g opacity="0" transform="translate(372.607,412.192) rotate(92.9697) scale(0.8,0.8) translate(-28.57,-36.795)" style="animation: 4s linear both a6_t, 4s linear both a6_o;">
        <ellipse class="cls-4" rx="16.52" ry="16.52" fill="#2d3445" transform="translate(-190.08,-118.74) translate(206.6,175.81)"/>
        <ellipse class="cls-4" rx="13.2" ry="13.2" fill="#2d3445" transform="translate(-190.08,-118.74) translate(234.02,131.94)"/>
        <rect class="cls-4" width="39.55" height="7.02" fill="#2d3445" transform="translate(-212.63,150.07) rotate(-60.35) translate(200.13,150.29)"/>
    </g>
    <g opacity="0" transform="translate(301.348,535.128) rotate(-57.6773) scale(0.8,0.8) translate(-22.5608,-29.7846)" style="animation: 4s linear both a7_t, 4s linear both a7_o;">
        <ellipse class="cls-2" rx="19.71" ry="19.71" fill="#53a9dd" transform="translate(-134.468,-141.981) translate(159.88,181.84)"/>
        <rect class="cls-2" width="7.02" height="39.55" fill="#53a9dd" transform="translate(-197.198,-38.8008) rotate(-32.1) translate(144.45,140.82)"/>
    </g>
    <ellipse class="cls-1" rx="16.4" ry="16.4" fill="#2d71b6" opacity="0" transform="translate(29.792,203.225) scale(0.8,0.8) translate(52.39,85.2)" style="animation: 4s linear both a8_t, 4s linear both a8_o;"/>
    <ellipse class="cls-3" rx="8.81" ry="8.81" fill="#888f99" opacity="0" transform="translate(117.265,171) scale(0.8,0.8) translate(158.06,8.81)" style="animation: 4s linear both a9_t, 4s linear both a9_o;"/>
    <ellipse class="cls-1" rx="8.81" ry="8.81" fill="#2d71b6" opacity="0" transform="translate(185.891,220.173) scale(0.8,0.8) translate(215.66,39.82)" style="animation: 4s linear both a10_t, 4s linear both a10_o;"/>
    <g style="animation: 4s linear both a12_t;">
        <g opacity="0" transform="translate(301.348,230.733) rotate(-88.4614) scale(0.8,0.8) translate(-49.35,-20.25)" style="animation: 4s linear both a11_t, 4s linear both a11_o;">
            <ellipse class="cls-2" rx="19.71" ry="19.71" fill="#53a9dd" transform="translate(-80.14,-59.28) translate(159.13,79.71)"/>
            <ellipse class="cls-2" rx="20.25" ry="20.25" fill="#53a9dd" transform="translate(-80.14,-59.28) translate(100.39,79.53)"/>
            <rect class="cls-2" width="7.02" height="39.55" fill="#53a9dd" transform="translate(-30.71,149.2) rotate(-89.4271) scale(1.00005,1.00005) translate(125.99,59.62)"/>
        </g>
    </g>
    <g style="animation: 4s linear both a14_t;">
        <g opacity="0" transform="translate(111.312,209.613) rotate(137.898) scale(0.8,0.8) translate(-18.77,-25.605)" style="animation: 4s linear both a13_t, 4s linear both a13_o;">
            <ellipse class="cls-2" rx="13.2" ry="13.2" fill="#53a9dd" transform="translate(-65.07,-3.63) translate(78.27,41.64)"/>
            <ellipse class="cls-2" rx="8.81" ry="8.81" fill="#53a9dd" transform="translate(-65.07,-3.63) translate(93.8,12.44)"/>
            <rect class="cls-2" width="35.77" height="6.35" fill="#53a9dd" transform="translate(-37.66,91.84) rotate(-66.18) translate(69.08,23.53)"/>
        </g>
    </g>
    <g style="animation: 4s linear both a16_t;">
        <g opacity="0" transform="translate(358.107,251) rotate(93.8782) scale(0.8,0.8) translate(-26.7962,-36.724)" style="animation: 4s linear both a15_t, 4s linear both a15_o;">
            <rect class="cls-2" width="39.55" height="7.02" fill="#53a9dd" transform="translate(-115.18,104.278) rotate(-62.95) translate(127.23,97.32)"/>
            <ellipse class="cls-1" rx="24.64" ry="24.64" fill="#2d71b6" transform="translate(-105.52,-81.6121) translate(130.16,130.42)"/>
        </g>
    </g>
    <g style="animation: 4s linear both a18_t;">
        <ellipse class="cls-3" rx="8.81" ry="8.81" fill="#888f99" opacity="0" transform="translate(39.1944,362.592) scale(0.8,0.8) translate(47.57,223.3)" style="animation: 4s linear both a17_t, 4s linear both a17_o;"/>
    </g>
    <g style="animation: 4s linear both a20_t;">
        <ellipse class="cls-3" rx="8.81" ry="8.81" fill="#888f99" opacity="0" transform="translate(130.83,171) scale(0.8,0.8) translate(39.96,45.62)" style="animation: 4s linear both a19_t, 4s linear both a19_o;"/>
    </g>
    <g style="animation: 4s linear both a22_t;">
        <g opacity="0" transform="translate(128.492,549) rotate(-65.7664) scale(0.8,0.8) translate(-21.475,-26.525)" style="animation: 4s linear both a21_t, 4s linear both a21_o;">
            <ellipse class="cls-2" rx="13.2" ry="13.2" fill="#53a9dd" transform="translate(-67.39,-208.45) translate(80.59,221.65)"/>
            <ellipse class="cls-2" rx="8.81" ry="8.81" fill="#53a9dd" transform="translate(-67.39,-208.45) translate(101.53,252.69)"/>
            <rect class="cls-2" width="5.99" height="33.73" fill="#53a9dd" transform="translate(-186.91,-113.45) rotate(-34.8) translate(88.8,221.31)"/>
        </g>
    </g>
    <g style="animation: 4s linear both a24_t;">
        <g opacity="0" transform="translate(51.024,504.834) rotate(98.3983) scale(0.8,0.8) translate(-26.54,-40.115)" style="animation: 4s linear both a23_t, 4s linear both a23_o;">
            <ellipse class="cls-4" rx="19.71" ry="19.71" fill="#2d3445" transform="translate(-38.45,-113) translate(71.82,132.71)"/>
            <ellipse class="cls-4" rx="16.52" ry="16.52" fill="#2d3445" transform="translate(-38.45,-113) translate(54.97,176.71)"/>
            <rect class="cls-4" width="39.55" height="7.02" fill="#2d3445" transform="translate(-143.85,59.61) rotate(-73.55) translate(42.99,153.3)"/>
        </g>
    </g>
    <g style="animation: 4s linear both a26_t;">
        <g opacity="0" transform="translate(35,425.024) rotate(99.0601) scale(0.8,0.8) translate(-20.03,-40.83)" style="animation: 4s linear both a25_t, 4s linear both a25_o;">
            <ellipse class="cls-2" rx="13.2" ry="13.2" fill="#53a9dd" transform="translate(0,-95.16) translate(26.86,133.15)"/>
            <ellipse class="cls-2" rx="8.81" ry="8.81" fill="#53a9dd" transform="translate(0,-95.16) translate(11.07,168.01)"/>
            <ellipse class="cls-2" rx="8.81" ry="8.81" fill="#53a9dd" transform="translate(0,-95.16) translate(8.81,103.97)"/>
            <rect class="cls-2" width="35.74" height="6.34" fill="#53a9dd" transform="translate(-134.75,26.2) rotate(-71.67) translate(-1.22,150.8)"/>
            <rect class="cls-2" width="6.34" height="35.74" fill="#53a9dd" transform="translate(-69.86,-57.16) rotate(-38.63) translate(16.11,100.79)"/>
        </g>
    </g>
    <g style="animation: 4s linear both a28_t;">
        <g opacity="0" transform="translate(218.499,221.621) rotate(80.5148) scale(0.8,0.8) translate(-40.76,-16.52)" style="animation: 4s linear both a27_t, 4s linear both a27_o;">
            <ellipse class="cls-4" rx="16.52" ry="16.52" fill="#2d3445" transform="translate(-113.48,-26.17) translate(130,42.69)"/>
            <ellipse class="cls-4" rx="13.2" ry="13.2" fill="#2d3445" transform="translate(-113.48,-26.17) translate(181.8,40.88)"/>
            <rect class="cls-4" width="7.02" height="39.55" fill="#2d3445" transform="translate(1.17,171.54) rotate(-89.7) translate(153.19,21.45)"/>
        </g>
    </g>
    <g style="animation: 4s linear both a30_t;">
        <g opacity="0" transform="translate(328.912,333.501) rotate(91.4088) scale(0.8,0.8) translate(-26.78,-40.895)" style="animation: 4s linear both a29_t, 4s linear both a29_o;">
            <ellipse class="cls-2" rx="20.25" ry="20.25" fill="#53a9dd" transform="translate(-169.9,-69.96) translate(190.15,131.5)"/>
            <ellipse class="cls-2" rx="15.11" ry="15.11" fill="#53a9dd" transform="translate(-169.9,-69.96) translate(208.35,85.07)"/>
            <rect class="cls-2" width="45.29" height="8.04" fill="#53a9dd" transform="translate(-150.86,184.4) rotate(-67.98) translate(175.5,109.04)"/>
        </g>
    </g>
    <g style="animation: 4s linear both a32_t;">
        <g opacity="0" transform="translate(215.904,548.9) rotate(-57.3568) scale(0.8,0.8) translate(-32.165,-37.465)" style="animation: 4s linear both a31_t, 4s linear both a31_o;">
            <ellipse class="cls-2" rx="15.61" ry="15.61" fill="#53a9dd" transform="translate(-81.54,-162.99) translate(130.26,222.31)"/>
            <ellipse class="cls-2" rx="20.25" ry="20.25" fill="#53a9dd" transform="translate(-81.54,-162.99) translate(101.79,183.24)"/>
            <rect class="cls-2" width="7.02" height="39.55" fill="#53a9dd" transform="translate(-174.84,-62.94) rotate(-34) translate(113.45,182.81)"/>
        </g>
    </g>
</svg>
