
<svg xmlns="http://www.w3.org/2000/svg" xmlns:xlink="http://www.w3.org/1999/xlink" viewBox="0 0 453.2 432.4"><path d="M15.87 167.74c-33.6 45.38-10.23 182.52 36.32 225.43S216 439.5 281.82 423.84s183.4-137.84 112-213.27S290.1 183.27 197.9 165 55 114.85 15.87 167.74z" fill="#04081e" opacity=".05"/><path d="M102.6.12l314.55 181.6v227.1L102.6 227.2V.12z" fill="#d3d3d3"/><path d="M417.15 199.25L102.6 17.64V.12l314.55 181.6v17.53z" fill="#009eff"/><path d="M137.2 247.18l-34.6-19.98V0l34.6 19.98v227.2z" fill="#323b3f"/><g fill="#fff"><path d="M129.8 63.8L110 52.35v-3.3l19.8 11.45v3.3zm-6.04-15.26c0 2.5-1.75 3.5-3.9 2.26a8.64 8.64 0 0 1-3.91-6.8c0-2.5 1.75-3.5 3.9-2.26a8.64 8.64 0 0 1 3.91 6.8zm6.04 39.33L110 76.43v-3.3l19.82 11.44v3.3z"/><use xlink:href="#B"/><path d="M129.8 111.95L110 100.5v-3.3l19.82 11.44v3.3z"/><use xlink:href="#B" y="24.08"/><path d="M129.8 136.04L110 124.6v-3.3l19.82 11.44v3.3z"/><use xlink:href="#B" y="48.16"/><path d="M129.8 160.12L110 148.67v-3.3l19.82 11.44v3.3z"/><use xlink:href="#B" y="72.24"/></g><g fill="#bfbfbf"><path d="M178.9 364.6l-99.38-56.9c-4.3-2.48-7.78-9.14-7.78-14.87V161.58c0-5.73 3.48-8.36 7.78-5.88l99.37 56.9c4.3 2.48 7.78 9.14 7.78 14.87V358.7c.01 5.73-3.48 8.37-7.77 5.9z"/><path d="M67.84 158.1l7.7-3.33V163l-7.7-4.9zM175.9 368.52l7.5-3.26v-7.72h-11.16l3.67 10.98z"/></g><path d="M171.9 367.6l-99.38-56.9c-4.3-2.48-7.78-9.14-7.78-14.87V164.58c0-5.73 3.48-8.36 7.78-5.88l99.37 56.9c4.3 2.48 7.78 9.14 7.78 14.87V361.7c.01 5.73-3.48 8.37-7.77 5.9z" fill="#fff"/><g stroke-width="3" stroke-miterlimit="10" stroke="#d1d1d1"><path d="M135.7 246.2c-.05 11.8-7.3 16.7-16.22 11s-16.1-19.94-16-31.73 7.3-16.7 16.22-11 16.05 19.94 16 31.73z" fill="#0083cc"/><path d="M135.46 300c-.05 11.8-7.3 16.7-16.22 11s-16.1-19.94-16-31.73 7.3-16.7 16.22-11 16.05 19.94 16 31.73z" fill="none"/></g><path d="M129 244.35c-.8 7.2-5.74 9.05-11 4.13s-8.9-14.76-8.1-22 5.74-9.05 11-4.13 8.94 14.8 8.1 22z" fill="#fff"/><g fill="#bfbfbf"><path d="M383.33 415.7L254 338.78c-4.3-2.48-7.78-9.14-7.78-14.87v-51.23c0-5.73 3.48-8.36 7.78-5.88l129.37 76.9c4.3 2.48 7.78 9.14 7.78 14.87v51.23c-.04 5.73-3.52 8.36-7.82 5.88z"/><path d="M242.28 269.2l7.72-3.33v8.23l-7.72-4.9zm138.05 150.42l7.5-3.25v-7.73h-11.17l3.67 10.98z"/></g><path d="M376.33 418.7L247 341.78c-4.3-2.48-7.78-9.14-7.78-14.87v-51.23c0-5.73 3.48-8.36 7.78-5.88l129.37 76.9c4.3 2.48 7.78 9.14 7.78 14.87v51.23c-.04 5.73-3.52 8.36-7.82 5.88z" fill="#fff"/><path d="M265 318.44c-.1 4.36-2.87 6.3-6.17 4.35s-5.9-7.07-5.8-11.43 2.87-6.3 6.17-4.35 5.93 7.07 5.8 11.43zm100.6 67.48l-93.44-55.26.38-15.78 93.43 55.26-.37 15.78z" fill="#d1d1d1"/><g fill="#bfbfbf"><path d="M445.42 358.83L316 281.93c-4.3-2.48-7.78-9.14-7.78-14.87v-51.23c0-5.73 3.48-8.36 7.78-5.88l129.37 76.9c4.3 2.48 7.78 9.14 7.78 14.87V353c.05 5.68-3.43 8.32-7.73 5.83z"/><path d="M304.38 212.34l7.7-3.33v8.23l-7.7-4.9zm138.04 150.43l7.5-3.26v-7.72h-11.17l3.67 10.98z"/></g><path d="M438.42 361.83L309 284.93c-4.3-2.48-7.78-9.14-7.78-14.87v-51.23c0-5.73 3.48-8.36 7.78-5.88l129.37 76.9c4.3 2.48 7.78 9.14 7.78 14.87V356c.05 5.68-3.43 8.32-7.73 5.83z" fill="#fff"/><path d="M326.47 247.87l3.46 11 7.37 5.84-5.18 3.87 1.45 10.7-6.65-8.62-6.48.78 1.06-9.2-5.44-10.2 7.3 2.93 3.1-7.1zm23.05 13.77l3.46 11 7.36 5.84-5.17 3.87 1.45 10.7-6.66-8.62-6.47.78 1.06-9.2-5.45-10.2 7.3 2.93 3.1-7.1zm23.04 13.76l3.46 11 7.37 5.84-5.18 3.87 1.45 10.7-6.65-8.62-6.47.78 1.06-9.2-5.45-10.2 7.3 2.93 3.1-7.1zm22.8 18.36l2.32 7.37.4.3 5.73 4.54-4.26 3.2.13.94.64 4.73-3-3.86-.56-.72-.9.1-4.45.53.83-7.17.06-.5-.24-.44-3.37-6.32 4.66 1.87.63-1.43 1.38-3.15m.25-4.58l-3.1 7.1-7.3-2.93 5.45 10.22-1.06 9.2 6.47-.77 6.65 8.62-1.45-10.7 5.17-3.87-7.37-5.84-3.46-11zm22.8 18.36l2.32 7.37.4.3 5.73 4.54-4.26 3.2.13.94.64 4.73-3-3.86-.56-.72-.9.1-4.45.53.83-7.17.06-.5-.24-.44-3.37-6.32 4.66 1.87.63-1.43 1.38-3.15m.25-4.58l-3.08 7.04-7.3-2.93 5.45 10.22-1.06 9.2 6.47-.77 6.65 8.62-1.45-10.7 5.17-3.87-7.36-5.78-3.46-11z" fill="#fcd532"/><g fill="#bfbfbf"><path d="M246 150.65l-63.1-36.13c-2.73-1.58-4.94-5.8-4.94-9.44V21.74c0-3.64 2.2-5.3 4.94-3.74L246 54.14c2.73 1.58 4.94 5.8 4.94 9.44v83.33c.06 3.64-2.18 5.3-4.94 3.74z"/><path d="M173.25 20.53l7.17-3.12v6.23l-7.17-3.1zm68.87 133.62l6.77-3.07v-4.9h-7.1l.32 7.98z"/></g><path d="M239.58 153.55l-63.1-36.13c-2.73-1.58-4.94-5.8-4.94-9.44V24.65c0-3.64 2.2-5.3 4.94-3.74l63.1 36.1c2.73 1.58 4.94 5.8 4.94 9.44v83.33c.01 3.68-2.2 5.36-4.94 3.78z" fill="#fff"/><path d="M229 84.6a5 5 0 1 0-6.24-7.78l-20.5 16.45-8.4-10.47a5 5 0 0 0-7-.77 5 5 0 0 0-.77 7l11.53 14.37a5 5 0 0 0 7 .77z" fill="#25b725"/><defs ><path id="B" d="M123.76 72.62c0 2.5-1.75 3.5-3.9 2.26a8.64 8.64 0 0 1-3.91-6.77c0-2.5 1.75-3.5 3.9-2.26a8.64 8.64 0 0 1 3.91 6.77z"/></defs></svg>